<svg xmlns="http://www.w3.org/2000/svg" version="1.1" viewBox="78 60 4399.73 927.79"><path d="M 1115.342 253.750 C 1115.693 276.712, 1116.955 410.925, 1118.145 552 C 1119.335 693.075, 1120.452 808.675, 1120.626 808.888 C 1121.062 809.423, 1267.277 804.056, 1267.849 803.484 C 1268.414 802.919, 1266.235 534.325, 1265.409 502.750 C 1265.082 490.237, 1265.195 480, 1265.661 480 C 1266.127 480, 1320.705 553.125, 1386.945 642.500 L 1507.381 805 1581.190 805 C 1621.786 805, 1655.030 804.888, 1655.067 804.750 C 1655.349 803.700, 1659.833 214.499, 1659.560 214.227 C 1659.215 213.882, 1512.702 219.028, 1512.288 219.400 C 1511.986 219.671, 1510.021 462.339, 1509.975 505 L 1509.937 540.500 1507.682 537.942 C 1506.441 536.535, 1451.267 464.310, 1385.072 377.442 C 1318.877 290.574, 1264.357 219.098, 1263.916 218.607 C 1263.203 217.813, 1140.802 212.147, 1122.101 212.042 L 1114.703 212 1115.342 253.750 M 1895.560 217.653 C 1774.042 220.620, 1674.556 223.149, 1674.478 223.274 C 1674.267 223.612, 1685.043 375.390, 1685.288 375.535 C 1685.405 375.604, 1720.971 374.795, 1764.324 373.738 C 1807.678 372.680, 1843.453 372.119, 1843.824 372.491 C 1844.196 372.862, 1844.843 471.309, 1845.261 591.261 C 1845.680 711.213, 1846.177 809.511, 1846.366 809.700 C 1846.854 810.188, 1996.043 803.290, 1996.578 802.755 C 1996.821 802.512, 1996.663 704.930, 1996.226 585.907 C 1995.789 466.883, 1995.697 369.160, 1996.021 368.745 C 1996.344 368.330, 2034.773 367.117, 2081.418 366.049 C 2128.062 364.981, 2166.409 363.925, 2166.632 363.702 C 2166.855 363.478, 2164.329 329.518, 2161.019 288.234 C 2157.708 246.949, 2155 212.908, 2155 212.586 C 2155 211.502, 2117.410 212.236, 1895.560 217.653 M 3295.563 217.648 C 3174.047 220.615, 3074.534 223.145, 3074.423 223.271 C 3074.114 223.622, 3084.839 375.184, 3085.191 375.440 C 3085.361 375.563, 3120.967 374.794, 3164.315 373.731 C 3207.664 372.667, 3243.378 372.045, 3243.681 372.348 C 3243.984 372.650, 3244.612 471.079, 3245.078 591.078 C 3245.544 711.077, 3246.092 809.425, 3246.297 809.630 C 3246.761 810.094, 3396.051 803.283, 3396.560 802.774 C 3396.764 802.570, 3396.542 704.775, 3396.068 585.451 C 3395.594 466.128, 3395.307 368.390, 3395.430 368.256 C 3395.554 368.122, 3434.033 367.134, 3480.940 366.060 C 3527.847 364.986, 3566.368 363.965, 3566.542 363.791 C 3566.716 363.617, 3564.197 330.405, 3560.944 289.987 C 3557.691 249.569, 3555.022 215.488, 3555.014 214.250 L 3555 212 3535.750 212.127 C 3525.162 212.197, 3417.078 214.682, 3295.563 217.648 M 2837 219.065 C 2803.340 220.964, 2773.334 228.617, 2743.500 242.911 C 2685.638 270.633, 2647.151 317.571, 2635.810 374.245 C 2633.909 383.746, 2633.555 388.772, 2633.537 406.500 C 2633.514 429.862, 2635.183 441.479, 2641.105 459.153 C 2658.825 512.044, 2705.020 556.176, 2763.884 576.449 C 2788.027 584.765, 2805.613 587.777, 2837.495 589.060 C 2850.692 589.591, 2865.561 590.680, 2870.537 591.481 C 2893.905 595.241, 2905.240 602.222, 2908.101 614.617 C 2911.728 630.330, 2895.109 647.228, 2869.203 654.170 C 2857.942 657.187, 2830.250 657.884, 2815.930 655.511 C 2783.681 650.166, 2749.748 632.799, 2724.345 608.636 L 2714.190 598.977 2663.095 654.964 C 2634.993 685.757, 2612 711.338, 2612 711.811 C 2612 713.140, 2634.544 734.785, 2643.475 742.030 C 2672.773 765.800, 2718.341 788.748, 2757.613 799.512 C 2786.626 807.463, 2809.118 810.470, 2839 810.393 C 2883.621 810.277, 2920.055 801.577, 2957.661 782.058 C 2980.560 770.172, 2997.319 758.066, 3014.863 740.737 C 3056.651 699.459, 3076.817 650.307, 3074.654 595 C 3073.989 577.982, 3070.941 560.561, 3066.404 547.839 C 3049.182 499.555, 3008.212 464.543, 2948.981 447.495 C 2923.672 440.210, 2901.621 437.260, 2863.114 436.009 C 2808.861 434.246, 2783.071 426.014, 2779.547 409.334 C 2776.872 396.674, 2792.915 382.844, 2817.868 376.299 C 2829.856 373.154, 2855.761 372.008, 2870.337 373.978 C 2891.680 376.862, 2915.105 384.472, 2938.012 395.965 C 2949.911 401.935, 2970.638 414.389, 2980.448 421.464 C 2984.408 424.319, 2985.638 424.779, 2986.606 423.766 C 2987.271 423.070, 3006.774 396.850, 3029.947 365.500 L 3072.077 308.500 3064.789 301.683 C 3047.136 285.173, 3023.730 268.302, 3002.308 256.647 C 2964.008 235.810, 2915.884 221.714, 2875.500 219.505 C 2854.870 218.376, 2850.162 218.322, 2837 219.065 M 4028 219.584 C 3981.554 223.550, 3950.828 231.863, 3914.708 250.235 C 3861.402 277.349, 3820.553 316.469, 3790.580 369.112 C 3773.780 398.621, 3762.455 431.990, 3756.852 468.500 C 3753.947 487.428, 3753.266 523.556, 3755.429 544 C 3760.872 595.456, 3777.259 640.028, 3807.163 684.716 C 3834.845 726.083, 3874.801 761.043, 3919.500 783.004 C 3938.463 792.321, 3949.945 796.673, 3968.307 801.503 C 4047.978 822.463, 4136.466 803.713, 4205.265 751.295 C 4217.891 741.675, 4239.754 720.530, 4249.512 708.500 C 4270.661 682.427, 4285.633 652.385, 4292.003 623.235 C 4293.051 618.436, 4293.592 614.206, 4293.205 613.836 C 4292.503 613.166, 4174.039 572.271, 4171.334 571.766 C 4170.427 571.596, 4168.897 573.895, 4167.106 578.118 C 4163.490 586.640, 4154.979 599.546, 4146.876 608.794 C 4126.497 632.052, 4094.369 650.277, 4064.619 655.454 C 4052.780 657.515, 4029.156 657.480, 4016.926 655.385 C 3975.271 648.246, 3941.572 622.993, 3922.215 584.409 C 3901.028 542.180, 3901.082 478.580, 3922.338 437.500 C 3940.380 402.630, 3977.698 378.551, 4022.366 372.959 C 4034.857 371.395, 4060.657 372.197, 4071.471 374.485 C 4098.918 380.293, 4121.575 392.690, 4142.082 413.119 C 4152.657 423.653, 4162.137 437.058, 4166.585 447.764 C 4168.125 451.469, 4169.489 454.654, 4169.618 454.843 C 4169.810 455.124, 4280.969 421.614, 4297.308 416.350 C 4303.008 414.513, 4303.031 415.429, 4296.797 396.102 C 4286.642 364.619, 4273.036 339.078, 4253.328 314.500 C 4243.092 301.735, 4222.362 281.622, 4209.512 271.988 C 4173.611 245.072, 4129.865 227.954, 4080.531 221.518 C 4068.839 219.992, 4036.963 218.819, 4028 219.584 M 410.500 223.559 C 314.800 225.371, 233.688 226.886, 230.250 226.926 L 224 227 224 516 L 224 805 300.500 805 L 377 805 376.964 796.250 C 376.944 791.438, 375.636 745.875, 374.057 695 C 372.478 644.125, 371.482 602.221, 371.843 601.880 C 372.204 601.539, 414.757 600.757, 466.404 600.142 C 518.051 599.528, 560.543 598.790, 560.831 598.502 C 561.522 597.811, 549.456 447.122, 548.644 446.311 C 548.299 445.965, 507.447 446.214, 457.863 446.863 C 408.279 447.513, 367.440 447.773, 367.109 447.442 C 366.165 446.498, 364.222 380.565, 365.120 379.965 C 365.561 379.671, 418.927 378.187, 483.711 376.668 C 548.495 375.149, 603.413 373.675, 605.750 373.392 L 610 372.877 610 296.439 L 610 220 597.250 220.133 C 590.237 220.206, 506.200 221.748, 410.500 223.559 M 754.987 249.256 C 747.911 263.690, 691.487 378.771, 629.601 504.990 C 567.715 631.210, 517.400 734.793, 517.790 735.173 C 518.704 736.064, 664.831 796.103, 667.547 796.703 C 669.402 797.113, 671.887 791.460, 693.985 736.578 L 718.376 676 770.438 676.001 C 799.072 676.002, 843.002 676.299, 868.061 676.662 L 913.621 677.321 930.443 739.910 C 939.695 774.335, 947.648 802.921, 948.117 803.435 C 948.900 804.293, 1096.415 769.597, 1099.136 767.916 C 1099.863 767.467, 1073.143 685.407, 1019.998 524.869 C 975.868 391.566, 935.539 269.604, 930.378 253.843 L 920.995 225.186 911.747 224.627 C 906.661 224.319, 872.204 223.830, 835.176 223.539 L 767.852 223.012 754.987 249.256 M 2154.500 477.983 C 2085.750 618.215, 2029.387 733.524, 2029.250 734.225 C 2029.088 735.047, 2055.725 746.426, 2104.250 766.265 C 2145.637 783.186, 2179.950 797.014, 2180.500 796.993 C 2181.050 796.973, 2192.375 769.853, 2205.667 736.728 L 2229.833 676.500 2284.167 676.264 C 2314.050 676.134, 2358.048 676.359, 2381.940 676.764 L 2425.379 677.500 2442.391 740.750 C 2455.635 789.993, 2459.746 803.996, 2460.951 803.980 C 2462.924 803.955, 2610.916 768.417, 2611.506 767.827 C 2611.748 767.585, 2571.574 645.386, 2522.231 496.274 L 2432.516 225.160 2422.508 224.612 C 2417.004 224.311, 2382.575 223.829, 2346 223.540 L 2279.500 223.015 2154.500 477.983 M 3590.983 253.750 C 3590.974 270.663, 3590.082 391.375, 3589 522 C 3587.918 652.625, 3587.026 769.737, 3587.017 782.250 L 3587 805 3661 805 L 3735 805 3735.016 778.250 C 3735.025 763.538, 3735.918 644.400, 3737.001 513.500 C 3738.084 382.600, 3738.976 263.688, 3738.985 249.250 L 3739 223 3665 223 L 3591 223 3590.983 253.750 M 807.191 454.130 C 792.171 491.577, 780.171 522.505, 780.524 522.858 C 780.877 523.211, 801.645 523.655, 826.674 523.845 C 866.769 524.148, 872.142 524.010, 871.842 522.686 C 869.833 513.847, 835.372 386.021, 835 386.031 C 834.725 386.039, 822.211 416.683, 807.191 454.130 M 2318.894 454.219 L 2291.403 522.500 2297.952 523.126 C 2301.553 523.470, 2322.436 523.807, 2344.357 523.876 C 2375.869 523.974, 2384.115 523.738, 2383.740 522.750 C 2383.479 522.063, 2375.280 491.575, 2365.520 455 C 2355.761 418.425, 2347.463 387.924, 2347.081 387.219 C 2346.688 386.495, 2334.441 415.606, 2318.894 454.219" stroke="none" fill="#ebebeb" fill-rule="evenodd"/><path d="M 1058.995 170.750 C 1058.988 192.380, 1060.820 400.079, 1061.373 440.348 C 1061.606 457.315, 1061.443 470.815, 1061.011 470.348 C 1060.578 469.882, 1056.760 458.925, 1052.525 446 C 1048.290 433.075, 1025.963 365.529, 1002.908 295.897 L 960.991 169.295 892.245 168.644 C 854.435 168.286, 803.233 167.706, 778.461 167.354 L 733.422 166.715 699.961 234.915 L 666.500 303.114 666.243 233.088 L 665.987 163.062 646.743 163.595 C 625.947 164.171, 186.513 172, 174.984 172 L 168 172 168 516.500 L 168 861 301.555 861 L 435.110 861 434.508 847.750 C 433.718 830.343, 429 672.122, 429 663.038 L 429 656 461 656 C 478.600 656, 493 656.197, 493 656.437 C 493 656.677, 481.300 680.789, 467 710.019 C 452.700 739.249, 441.013 763.465, 441.029 763.832 C 441.058 764.483, 694.600 868.586, 698.526 869.559 C 700.295 869.998, 703.361 862.915, 728.079 801.274 L 755.657 732.500 813.153 732.242 L 870.648 731.984 889.258 801.093 C 899.494 839.103, 908.111 870.445, 908.408 870.742 C 908.796 871.130, 1044.427 839.147, 1063.083 834.268 C 1064.916 833.789, 1065 834.501, 1065 850.529 L 1065 867.292 1077.250 866.666 C 1083.987 866.321, 1142.375 864.170, 1207 861.886 C 1271.625 859.602, 1324.542 857.680, 1324.593 857.616 C 1324.643 857.552, 1324.298 820.150, 1323.825 774.500 C 1323.352 728.850, 1323.085 682.279, 1323.232 671.009 L 1323.500 650.519 1401 755.215 L 1478.500 859.912 1594.750 859.956 L 1711 860 1711.006 828.250 C 1711.016 770.667, 1714.021 431.646, 1714.525 431.141 C 1715.113 430.554, 1787.969 428.636, 1788.527 429.194 C 1788.738 429.405, 1789.229 528.223, 1789.618 648.789 L 1790.325 868 1792.912 868.029 C 1798.572 868.093, 2048.650 856.819, 2050.750 856.405 L 2053 855.962 2053 830.981 C 2053 817.241, 2053.312 806, 2053.694 806 C 2054.075 806, 2089.656 820.460, 2132.761 838.133 C 2176.191 855.938, 2211.486 869.872, 2211.922 869.383 C 2212.355 868.897, 2225.037 837.791, 2240.105 800.258 L 2267.500 732.015 2324.968 732.258 L 2382.436 732.500 2400.968 801.176 C 2411.161 838.948, 2419.812 870.160, 2420.194 870.537 C 2420.575 870.913, 2472.968 858.725, 2536.622 843.451 L 2652.356 815.682 2665.928 822.762 C 2715.727 848.739, 2769.241 863.603, 2821.223 865.897 C 2873.170 868.190, 2919.871 859.907, 2964.929 840.411 C 3015.097 818.704, 3058.740 783.075, 3087.986 739.953 C 3116.843 697.403, 3130.263 654.200, 3130.371 603.500 C 3130.432 575.204, 3127.512 555.396, 3119.905 532.500 C 3108.165 497.161, 3085.152 463.947, 3056.250 440.625 C 3048.996 434.771, 3047.909 433.303, 3050.250 432.518 C 3051.801 431.999, 3188.031 428.687, 3188.466 429.159 C 3188.639 429.346, 3189.112 528.163, 3189.517 648.750 L 3190.253 868 3196.376 867.949 C 3208.543 867.847, 3451.872 856.462, 3452.362 855.971 C 3452.638 855.695, 3452.476 758.276, 3452 639.484 C 3451.525 520.693, 3451.443 423.208, 3451.818 422.852 C 3452.193 422.496, 3470.838 421.880, 3493.250 421.485 L 3534 420.765 3533.977 434.133 C 3533.964 441.485, 3533.299 523.550, 3532.499 616.500 C 3531.699 709.450, 3531.035 802.263, 3531.022 822.750 L 3531 860 3660.500 860 L 3790 860 3790 840.663 C 3790 830.028, 3790.297 806.421, 3790.661 788.203 L 3791.322 755.079 3801.911 765.792 C 3900.270 865.304, 4038.874 892.759, 4166.557 838.022 C 4231.386 810.230, 4286.834 761.907, 4319.477 704.752 C 4331.724 683.308, 4342.356 655.473, 4346.906 632.938 C 4349.319 620.989, 4356.999 576.649, 4356.699 576.398 C 4356.590 576.306, 4315.550 562.179, 4265.500 545.005 C 4215.450 527.831, 4174.175 513.481, 4173.778 513.117 C 4173.380 512.753, 4216.998 499.073, 4270.706 482.716 C 4324.414 466.360, 4368.567 452.767, 4368.824 452.510 C 4369.376 451.957, 4357.320 403.738, 4352.319 386.500 C 4347.886 371.219, 4339.452 349.865, 4331.783 334.500 C 4316.769 304.423, 4301.740 283.104, 4279 259.627 C 4253.041 232.827, 4227.238 214, 4194.500 197.973 C 4162.645 182.378, 4131.266 172.736, 4093.500 166.939 C 4073.656 163.893, 4029.917 163.129, 4008.011 165.445 C 3930.520 173.640, 3862.200 205.912, 3802.250 262.642 L 3795 269.503 3795 218.251 L 3795 167 3701.129 167 L 3607.258 167 3606.580 161 L 3605.901 155 3594.700 155.035 C 3569.107 155.114, 3015.899 168.767, 3015.333 169.334 C 3014.994 169.673, 3015.177 176.824, 3015.741 185.225 C 3016.305 193.626, 3016.665 200.616, 3016.541 200.758 C 3016.418 200.901, 3012.308 199.165, 3007.408 196.901 C 2980.306 184.379, 2947.339 173.947, 2918 168.608 C 2881.906 162.040, 2838.673 161.245, 2803.637 166.504 C 2743.678 175.505, 2685.664 204.122, 2645.404 244.557 C 2608.789 281.330, 2586.935 324.161, 2579.357 374 C 2576.930 389.959, 2576.915 423.207, 2579.328 439 C 2586.892 488.512, 2608.846 531.043, 2645.762 567.702 L 2657.042 578.904 2639.278 598.394 C 2628.728 609.970, 2621.267 617.400, 2620.905 616.692 C 2620.569 616.036, 2587.087 515.103, 2546.500 392.396 L 2472.705 169.292 2404.103 168.643 C 2366.371 168.285, 2315.141 167.704, 2290.257 167.351 L 2245.014 166.709 2228.797 199.604 C 2214.431 228.747, 2212.540 232.101, 2212.224 229 C 2212.027 227.075, 2210.617 209.858, 2209.090 190.740 C 2207.563 171.622, 2206.013 155.680, 2205.646 155.313 C 2205.279 154.946, 2096.646 157.217, 1964.240 160.359 C 1831.833 163.501, 1721.813 166.056, 1719.750 166.036 L 1716 166 1716 160.871 L 1716 155.742 1706.250 156.352 C 1700.888 156.687, 1642.725 158.844, 1577 161.145 C 1511.275 163.447, 1457.275 165.518, 1457 165.748 C 1456.593 166.088, 1455.613 265.184, 1455.105 357.472 C 1455.002 376.108, 1454.966 376.409, 1453.110 374.472 C 1452.070 373.388, 1415.578 325.700, 1372.017 268.500 C 1328.456 211.300, 1292.519 164.187, 1292.158 163.805 C 1291.552 163.165, 1079.440 153.999, 1065.250 154 L 1059 154 1058.995 170.750 M 1114.730 211.750 C 1114.230 212.717, 1119.649 808.983, 1120.163 809.496 C 1120.830 810.164, 1267.457 804.735, 1268.287 804.012 C 1268.720 803.635, 1268.355 730.980, 1267.477 642.556 C 1266.599 554.132, 1266.043 481.623, 1266.242 481.425 C 1266.440 481.227, 1320.579 553.936, 1386.551 643 L 1506.500 804.936 1581.250 804.968 L 1656 805 1656.080 781.750 C 1656.123 768.962, 1657.159 636.100, 1658.382 486.500 C 1659.604 336.900, 1660.356 214.216, 1660.052 213.868 C 1659.639 213.396, 1511.930 218.399, 1511.399 218.904 C 1511.343 218.957, 1511.004 263.887, 1510.646 318.750 C 1510.288 373.613, 1509.705 445.567, 1509.351 478.649 L 1508.708 538.798 1386.248 378.149 C 1318.894 289.792, 1263.497 217.399, 1263.143 217.276 C 1262.657 217.107, 1119.214 210.996, 1115.809 210.999 C 1115.429 211, 1114.943 211.338, 1114.730 211.750 M 1904 216.780 C 1777.775 219.833, 1674.340 222.454, 1674.144 222.604 C 1673.949 222.755, 1676.188 257.331, 1679.120 299.439 L 1684.451 376 1694.975 375.930 C 1700.764 375.891, 1736.550 375.072, 1774.500 374.109 C 1812.450 373.146, 1843.573 372.390, 1843.663 372.429 C 1843.752 372.468, 1844.157 470.952, 1844.562 591.283 C 1844.967 711.614, 1845.569 810.206, 1845.899 810.377 C 1847.026 810.961, 1996.498 803.831, 1997.120 803.164 C 1997.461 802.799, 1997.355 705.105, 1996.886 586.067 C 1996.416 467.029, 1996.287 369.379, 1996.599 369.067 C 1996.911 368.755, 2035.266 367.670, 2081.833 366.656 C 2128.400 365.641, 2166.773 364.516, 2167.107 364.156 C 2167.441 363.795, 2164.966 329.300, 2161.607 287.500 L 2155.500 211.500 2144.500 211.365 C 2138.450 211.290, 2030.225 213.727, 1904 216.780 M 3304 216.794 C 3177.775 219.838, 3074.302 222.490, 3074.060 222.687 C 3073.582 223.078, 3084.025 375.264, 3084.571 375.869 C 3084.923 376.258, 3223.027 373.282, 3236.103 372.604 L 3243.706 372.209 3244.431 590.855 C 3244.830 711.110, 3245.459 809.770, 3245.828 810.101 C 3246.198 810.431, 3278.225 809.216, 3317 807.401 C 3355.775 805.585, 3389.712 804.077, 3392.415 804.050 L 3397.329 804 3396.637 586.551 L 3395.944 369.101 3399.222 368.613 C 3401.944 368.209, 3551.369 364.894, 3563.250 364.974 C 3566.920 364.999, 3567 364.920, 3567.004 361.250 C 3567.010 356.615, 3556.157 218.746, 3555.433 214.250 L 3554.909 211 3544.205 211.129 C 3538.317 211.201, 3430.225 213.750, 3304 216.794 M 2831 218.604 C 2829.075 218.834, 2823.675 219.489, 2819 220.058 C 2767.669 226.316, 2717.934 249.901, 2683.950 284.100 C 2659.381 308.823, 2643.634 336.787, 2636.588 368.202 C 2627.747 407.623, 2632.746 448.497, 2650.628 483 C 2675.542 531.069, 2724.228 567.798, 2782.607 582.566 C 2800.800 587.169, 2814.765 588.934, 2841.500 590.012 C 2869.786 591.152, 2880.376 592.791, 2892.170 597.855 C 2905.902 603.751, 2911.447 616.851, 2905.504 629.357 C 2901.095 638.632, 2886.198 648.786, 2870.943 652.914 C 2824.201 665.561, 2766.260 647.847, 2724.961 608.282 L 2714.295 598.064 2664.398 652.733 C 2636.954 682.800, 2613.657 708.465, 2612.626 709.766 L 2610.752 712.131 2622.626 723.849 C 2644.055 744.995, 2666.173 760.781, 2694.590 775.210 C 2732.086 794.250, 2767.217 805.064, 2806.202 809.567 C 2823.991 811.622, 2862.929 811.079, 2878.500 808.558 C 2958.791 795.561, 3026.008 748.347, 3057.480 682.839 C 3082.409 630.951, 3081.550 566.299, 3055.352 522.687 C 3039.781 496.766, 3015.739 475.419, 2986 461.106 C 2969.685 453.254, 2959.797 449.675, 2941.407 444.962 C 2919.559 439.363, 2902.500 437.122, 2873 435.976 C 2831.187 434.351, 2814.706 432.208, 2799.034 426.359 C 2779.024 418.890, 2774.065 404.669, 2787.070 392.048 C 2792.374 386.901, 2807.054 379.595, 2817.241 377.033 C 2863.701 365.348, 2920.098 380.418, 2976.676 419.634 L 2985.852 425.994 3028.676 368.022 C 3052.229 336.138, 3071.621 309.476, 3071.769 308.775 C 3071.918 308.074, 3067.267 303.225, 3061.434 298 C 3014.895 256.311, 2959.819 230.591, 2896.500 220.979 C 2885.983 219.382, 2876.530 218.770, 2858.500 218.520 C 2845.300 218.336, 2832.925 218.374, 2831 218.604 M 416 222.689 C 311.225 224.589, 224.937 226.323, 224.250 226.541 C 223.254 226.857, 223 285.722, 223 516.469 L 223 806 300.628 806 L 378.256 806 377.609 790.250 C 376.301 758.377, 371.872 602.795, 372.262 602.405 C 372.483 602.184, 415.152 601.488, 467.082 600.859 C 519.012 600.230, 561.630 599.612, 561.789 599.485 C 562.090 599.246, 549.927 445.674, 549.575 445.271 C 549.465 445.144, 508.569 445.561, 458.696 446.196 C 408.822 446.831, 367.840 447.159, 367.624 446.925 C 367.145 446.406, 364.740 380.926, 365.184 380.483 C 365.358 380.310, 412.075 379.012, 469 377.599 C 525.925 376.186, 581.165 374.738, 591.756 374.382 L 611.012 373.734 610.756 296.617 C 610.503 220.302, 610.479 219.499, 608.500 219.367 C 607.400 219.293, 520.775 220.788, 416 222.689 M 4014.500 220.086 C 3901.818 231.641, 3803.511 310.956, 3767.956 419 C 3751.213 469.880, 3748.636 526.360, 3760.616 579.897 C 3769.883 621.310, 3789.359 662.668, 3816.467 698.500 C 3848.243 740.502, 3893.777 775.126, 3941.316 793.434 C 3991.859 812.900, 4047.671 815.882, 4102 802.018 C 4167.863 785.212, 4227.723 743.849, 4263.582 690.368 C 4272.094 677.672, 4283.023 655.436, 4287.455 641.796 C 4291.331 629.864, 4294.776 614.443, 4293.786 613.453 C 4292.974 612.640, 4171.903 570.985, 4170.519 571.042 C 4169.959 571.065, 4167.160 575.902, 4164.299 581.792 C 4157.983 594.796, 4151.487 603.626, 4139.499 615.500 C 4119.579 635.232, 4090.724 650.376, 4064 655.123 C 4051.797 657.290, 4025.573 656.792, 4013.266 654.159 C 3986.194 648.365, 3964.091 636.283, 3946.136 617.462 C 3919.965 590.027, 3907.016 554.622, 3907.016 510.500 C 3907.016 451.285, 3930.370 409.686, 3976.500 386.734 C 4009.156 370.486, 4054.888 367.867, 4090 380.236 C 4124.037 392.226, 4154.814 420.207, 4167.043 450.281 C 4168.336 453.461, 4169.868 455.886, 4170.447 455.670 C 4171.026 455.454, 4200.750 446.387, 4236.500 435.522 C 4272.250 424.657, 4301.852 415.445, 4302.283 415.051 C 4303.289 414.130, 4297.136 393.786, 4291.442 379.206 C 4271.009 326.878, 4232.655 282.517, 4183.516 254.375 C 4151.936 236.289, 4112.131 223.902, 4073.144 220.029 C 4061.222 218.844, 4026.278 218.879, 4014.500 220.086 M 767.174 223.500 C 765.799 225.671, 516.029 735.358, 516.257 735.529 C 516.390 735.629, 550.861 749.787, 592.858 766.990 C 652.104 791.260, 669.401 797.969, 670.043 796.931 C 670.498 796.194, 681.587 768.915, 694.685 736.309 L 718.500 677.027 815.683 677.013 C 907.378 677.001, 912.895 677.099, 913.388 678.750 C 913.675 679.712, 921.409 708.400, 930.574 742.500 C 939.739 776.600, 947.381 804.659, 947.555 804.853 C 948.012 805.361, 1101.003 768.626, 1100.985 768.012 C 1100.976 767.730, 1060.525 645.325, 1011.092 496 L 921.214 224.500 886.857 223.798 C 826.538 222.565, 767.859 222.419, 767.174 223.500 M 2278.428 224.500 C 2276.202 227.958, 2027.791 735.125, 2028.154 735.471 C 2028.635 735.929, 2178.147 797.198, 2180.011 797.701 C 2181.172 798.014, 2187.173 784.066, 2205.887 737.554 L 2230.252 677 2327.444 677 L 2424.636 677 2441.568 740.069 C 2450.881 774.756, 2458.783 803.607, 2459.128 804.180 C 2459.739 805.195, 2610.755 769.644, 2612.110 768.166 C 2612.642 767.586, 2583.850 680.188, 2459.978 306.367 L 2432.762 224.234 2383.631 223.594 C 2279.837 222.243, 2279.882 222.243, 2278.428 224.500 M 3590.629 250.250 C 3590.300 265.788, 3589.353 376.150, 3588.524 495.500 C 3587.696 614.850, 3586.731 733.313, 3586.381 758.750 L 3585.743 805 3660.261 805 L 3734.780 805 3735.361 784.750 C 3736.216 754.993, 3740.052 223.893, 3739.420 222.870 C 3739.123 222.389, 3705.852 222, 3665.055 222 L 3591.228 222 3590.629 250.250 M 2319.500 454.204 C 2304.650 491.072, 2292.361 521.601, 2292.191 522.045 C 2291.957 522.658, 2381.391 523.972, 2382.790 523.376 C 2383.058 523.262, 2347.085 387.749, 2346.681 387.349 C 2346.581 387.251, 2334.350 417.336, 2319.500 454.204 M 807.335 455.456 L 780.229 522.871 825.364 523.186 C 850.189 523.359, 870.686 523.389, 870.913 523.253 C 871.457 522.929, 836.002 389.719, 835.120 388.771 C 834.746 388.369, 822.243 418.378, 807.335 455.456 M 4021.808 417.437 C 4018.127 418.712, 4013.613 420.038, 4011.776 420.382 C 4009.939 420.727, 4004.963 422.988, 4000.718 425.407 C 3996.473 427.826, 3993 429.629, 3993 429.414 C 3993 429.198, 3989.979 430.870, 3986.287 433.130 C 3979.840 437.076, 3974.537 441.364, 3971.112 445.400 C 3970.226 446.445, 3968.694 448.152, 3967.708 449.192 C 3965.136 451.907, 3958.109 464.203, 3953.810 473.511 C 3944.388 493.913, 3942.380 514.337, 3947.898 533.644 C 3951.943 547.796, 3957.942 560.593, 3966.710 573.772 C 3974.069 584.834, 3979.433 590.132, 3988.750 595.544 C 3990.537 596.582, 3992 597.811, 3992 598.275 C 3992 598.738, 3992.419 598.859, 3992.931 598.543 C 3993.443 598.226, 3994.152 598.438, 3994.507 599.012 C 3995.182 600.103, 4013 609.337, 4013 608.596 C 4013 608.362, 4016.709 609.483, 4021.242 611.085 C 4025.775 612.688, 4030.275 614, 4031.242 614 C 4032.209 614, 4033 614.450, 4033 615 C 4033 615.600, 4037 616, 4043 616 C 4049 616, 4053 615.600, 4053 615 C 4053 614.450, 4053.683 614, 4054.519 614 C 4055.354 614, 4059.292 612.843, 4063.269 611.429 C 4067.246 610.015, 4071.505 608.658, 4072.734 608.413 C 4073.963 608.167, 4077.320 606.580, 4080.194 604.885 C 4083.068 603.191, 4086.305 601.634, 4087.386 601.426 C 4088.468 601.217, 4089.611 600.698, 4089.927 600.271 C 4090.242 599.844, 4093.124 597.779, 4096.331 595.683 C 4102.635 591.563, 4111 583.910, 4111 582.263 C 4111 581.703, 4111.664 580.694, 4112.474 580.021 C 4114.718 578.159, 4123.703 562.828, 4126.070 556.823 C 4127.223 553.898, 4128.562 551.028, 4129.045 550.445 C 4129.922 549.389, 4131.329 544.683, 4135.308 529.500 C 4136.461 525.100, 4137.764 521.350, 4138.202 521.167 C 4139.393 520.669, 4139.195 500, 4138 500 C 4137.450 500, 4137 499.383, 4137 498.629 C 4137 497.875, 4135.491 492.362, 4133.647 486.379 C 4130.034 474.656, 4124.198 461.437, 4120.376 456.317 C 4119.069 454.566, 4118 452.844, 4118 452.491 C 4118 452.137, 4115.980 449.224, 4113.512 446.016 C 4108.965 440.107, 4095.322 429.603, 4089.500 427.529 C 4087.850 426.941, 4084.322 425.166, 4081.661 423.583 C 4078.999 422, 4075.849 420.590, 4074.661 420.450 C 4073.472 420.309, 4069.046 419.025, 4064.824 417.597 C 4057.924 415.263, 4055.698 415.006, 4042.824 415.059 C 4030.531 415.109, 4027.551 415.446, 4021.808 417.437 M 2073 421.970 L 2051.500 422.500 2051.863 490.500 C 2052.062 527.900, 2052.329 558.617, 2052.456 558.760 C 2052.655 558.984, 2118.363 425.619, 2119.713 422.250 C 2120.249 420.912, 2116.770 420.891, 2073 421.970" stroke="none" fill="#070e16" fill-rule="evenodd"/><path d="M 1025.666 183.605 C 1025.873 219.297, 1026.175 251.088, 1026.335 254.250 C 1026.496 257.413, 1026.524 260, 1026.397 260 C 1026.270 260, 1016.891 232.173, 1005.554 198.162 L 984.941 136.324 924.721 135.667 C 891.599 135.306, 830.300 134.720, 788.500 134.366 L 712.500 133.721 705.808 147.111 L 699.115 160.500 699.058 144.993 L 699 129.485 691.250 129.725 C 686.987 129.857, 562 132.027, 413.500 134.547 C 265 137.067, 141.588 139.353, 139.250 139.626 L 135 140.123 135 517.061 L 135 894 302.148 894 L 469.297 894 468.658 879.250 C 468.307 871.137, 467.719 852.387, 467.351 837.582 C 466.782 814.643, 466.891 810.749, 468.092 811.239 C 468.866 811.555, 525.502 834.791, 593.948 862.876 C 662.394 890.960, 718.467 913.839, 718.554 913.719 C 718.641 913.598, 732.150 880.082, 748.575 839.237 L 778.438 764.974 811.841 765.237 L 845.245 765.500 864.761 838 C 875.494 877.875, 884.415 910.664, 884.585 910.864 C 884.827 911.148, 1023.022 878.416, 1030.250 876.362 C 1031.850 875.908, 1032 876.941, 1032 888.433 L 1032 901 1039.250 900.995 C 1043.237 900.992, 1114.675 898.517, 1198 895.495 C 1281.325 892.473, 1351.466 890, 1353.869 890 L 1358.237 890 1357.532 820.750 L 1356.826 751.500 1376.663 778.128 C 1387.573 792.773, 1411.350 824.823, 1429.500 849.351 L 1462.500 893.947 1602.781 893.974 C 1714.155 893.995, 1743.141 893.742, 1743.443 892.750 C 1743.652 892.063, 1744.316 816.350, 1744.919 724.500 C 1745.522 632.650, 1746.303 536.237, 1746.656 510.250 L 1747.297 463 1751.483 463 L 1755.669 463 1756.334 610.166 C 1756.701 691.107, 1757 790.107, 1757 830.166 C 1757 887.762, 1757.262 903.002, 1758.250 903.009 C 1762.277 903.039, 2072.786 888.903, 2078.750 888.418 L 2086 887.829 2086 871.308 C 2086 858.482, 2086.280 854.902, 2087.250 855.302 C 2125.657 871.166, 2227.895 912.940, 2228.885 913.174 C 2229.868 913.405, 2238.901 892.062, 2260.063 839.500 L 2289.856 765.500 2323.428 765.237 C 2341.893 765.092, 2357 765.145, 2357 765.354 C 2357 766.419, 2395.980 910.313, 2396.375 910.709 C 2396.630 910.963, 2453.315 897.611, 2522.342 881.038 L 2647.846 850.904 2657.879 855.939 C 2691.863 872.993, 2732.360 886.627, 2769.247 893.433 C 2793.214 897.855, 2810.506 899.344, 2838 899.355 C 2867.267 899.366, 2883.001 897.852, 2909.500 892.474 C 3027.385 868.549, 3122.543 785.140, 3153.407 678.679 L 3155.675 670.858 3156.337 699.592 C 3156.702 715.395, 3157 767.627, 3157 815.663 C 3157 884.861, 3157.260 903.002, 3158.250 903.009 C 3162.308 903.039, 3472.806 888.901, 3478.803 888.413 L 3486.106 887.819 3485.392 671.410 L 3484.679 455 3492.657 455 L 3500.635 455 3500.325 474.250 C 3500.155 484.837, 3499.564 561.450, 3499.013 644.500 C 3498.462 727.550, 3497.724 817.662, 3497.373 844.750 L 3496.734 894 3659.867 894 L 3823 894 3823 861.500 C 3823 843.625, 3823.161 829, 3823.359 829 C 3823.556 829, 3829.969 833.168, 3837.609 838.263 C 3887.740 871.691, 3939.467 890.749, 3997.500 897.172 C 4012.795 898.865, 4056.946 898.873, 4071.500 897.187 C 4134.149 889.925, 4190.568 869.056, 4242.500 833.936 C 4262.282 820.558, 4275.866 809.266, 4294.071 791.066 C 4312.793 772.351, 4323.299 759.726, 4336.518 740.065 C 4355.568 711.729, 4368.801 682.318, 4377.039 650 C 4381.007 634.432, 4394.541 555.110, 4393.399 554.115 C 4392.904 553.685, 4367.750 544.883, 4337.500 534.556 C 4289.631 518.213, 4278.118 514, 4281.327 514 C 4282.914 514, 4407.553 475.763, 4408.313 475.044 C 4409.377 474.036, 4387.032 385.335, 4381.473 368.496 C 4363.059 312.718, 4335.365 267.845, 4295.376 228.989 C 4238.402 173.629, 4165.828 140.897, 4080 131.851 C 4062.777 130.036, 4021.549 130.333, 4003.500 132.402 C 3945.040 139.105, 3890.372 158.286, 3842.476 188.898 C 3835.504 193.354, 3829.508 197, 3829.150 197.001 C 3828.793 197.001, 3828.636 182.826, 3828.803 165.501 L 3829.105 134 3733.669 134 L 3638.233 134 3637.630 131.750 C 3637.299 130.512, 3637.021 127.588, 3637.014 125.250 L 3637 121 3628.750 121.001 C 3624.213 121.002, 3479.650 124.376, 3307.500 128.498 C 3135.350 132.620, 2990.954 135.995, 2986.621 135.997 L 2978.742 136 2979.431 143 C 2979.811 146.850, 2979.924 150, 2979.684 150 C 2979.443 150, 2974.803 148.631, 2969.373 146.957 C 2948.677 140.580, 2925.578 135.635, 2901 132.320 C 2881.474 129.687, 2826.169 129.698, 2807.500 132.339 C 2780.390 136.173, 2755.431 142.326, 2733 150.705 C 2670.674 173.988, 2619.886 213.576, 2585.732 265.500 C 2577.409 278.152, 2564.817 302.437, 2560.865 313.456 C 2559.574 317.055, 2558.289 319.994, 2558.009 319.987 C 2557.729 319.980, 2543.843 278.692, 2527.151 228.237 C 2510.459 177.782, 2496.734 136.439, 2496.651 136.366 C 2496.568 136.292, 2438.450 135.672, 2367.500 134.990 C 2296.550 134.307, 2238.389 133.656, 2238.252 133.543 C 2238.116 133.430, 2237.715 130.562, 2237.360 127.169 L 2236.715 121 2228.608 121.001 C 2224.148 121.002, 2117.450 123.476, 1991.500 126.498 C 1865.550 129.521, 1759.529 131.995, 1755.897 131.997 L 1749.294 132 1749.774 127 L 1750.254 122 1746.377 121.968 C 1737.700 121.897, 1424.462 133.323, 1424 133.728 C 1423.725 133.968, 1423.356 166.753, 1423.180 206.583 C 1423.004 246.412, 1422.554 278.978, 1422.180 278.951 C 1421.806 278.924, 1396.346 245.849, 1365.603 205.451 C 1334.859 165.053, 1309.209 131.629, 1308.603 131.175 C 1307.996 130.722, 1249 127.985, 1177.500 125.094 C 1106 122.202, 1042.503 119.583, 1036.395 119.273 L 1025.290 118.710 1025.666 183.605 M 1058.912 153.421 C 1058.685 153.647, 1059.052 213.607, 1059.726 286.666 C 1060.401 359.725, 1060.851 430.624, 1060.726 444.220 L 1060.500 468.940 1010.966 319.220 L 961.432 169.500 932.966 168.871 C 917.310 168.525, 865.845 168.075, 818.600 167.871 L 732.700 167.500 699.600 234.946 L 666.500 302.393 666.243 232.562 L 665.986 162.732 638.243 163.394 C 622.984 163.758, 520.950 165.607, 411.500 167.502 C 302.050 169.398, 202.487 171.235, 190.249 171.586 L 167.997 172.223 168.249 516.861 L 168.500 861.500 301.750 861.754 L 435 862.007 435 858.595 C 435 856.718, 433.636 810.755, 431.968 756.456 C 430.301 702.157, 429.132 657.535, 429.371 657.296 C 429.609 657.058, 444.036 656.598, 461.431 656.274 L 493.057 655.686 490.140 662.093 C 488.535 665.617, 476.628 689.980, 463.681 716.234 C 450.733 742.488, 440.462 764.167, 440.856 764.411 C 441.997 765.116, 697.956 869.999, 699.178 870.263 C 700.377 870.521, 704.111 861.611, 735.432 783.750 L 756.249 732 790.375 732.002 C 809.144 732.004, 834.893 732.298, 847.596 732.658 L 870.691 733.311 888.987 801.405 C 899.049 838.857, 907.556 870.008, 907.891 870.628 C 908.310 871.404, 932.358 866.022, 984.964 853.378 C 1027.019 843.270, 1062.231 835, 1063.214 835 C 1064.854 835, 1065 836.305, 1065 851 L 1065 867 1070.250 867 C 1079.606 866.999, 1324.339 857.994, 1324.696 857.637 C 1324.886 857.447, 1324.549 811.059, 1323.947 754.553 C 1323.345 698.047, 1323.018 651.648, 1323.222 651.445 C 1323.425 651.242, 1358.594 698.309, 1401.376 756.038 L 1479.161 861 1595.081 861 L 1711 861 1711.022 844.250 C 1711.035 835.038, 1711.700 750.100, 1712.501 655.500 C 1713.302 560.900, 1713.966 471.737, 1713.978 457.360 L 1714 431.220 1734.750 430.616 C 1746.162 430.284, 1762.968 429.770, 1772.096 429.475 L 1788.693 428.938 1789.424 648.714 C 1789.827 769.591, 1790.234 868.541, 1790.328 868.603 C 1790.423 868.666, 1847.425 866.098, 1917 862.896 C 1986.575 859.695, 2045.638 857.059, 2048.250 857.038 L 2053 857 2053 831.393 C 2053 811.314, 2053.270 805.891, 2054.250 806.273 C 2054.938 806.541, 2090.150 820.961, 2132.500 838.317 C 2174.850 855.674, 2210.084 870.016, 2210.798 870.188 C 2211.668 870.397, 2221.267 847.724, 2239.878 801.500 L 2267.661 732.500 2303.580 732.260 C 2323.336 732.128, 2349.150 732.353, 2360.943 732.760 L 2382.387 733.500 2401.016 802.500 C 2417.879 864.958, 2419.828 871.470, 2421.573 871.179 C 2422.633 871.003, 2475 858.512, 2537.944 843.421 L 2652.387 815.984 2668.944 824.398 C 2755.017 868.140, 2845.062 878.363, 2928.741 853.894 C 3007.432 830.883, 3072.715 777.497, 3106.535 708.500 C 3122.068 676.811, 3129.473 646.906, 3130.678 611 C 3132.988 542.183, 3108.191 483.974, 3059 442.735 C 3054.325 438.816, 3050.080 435.255, 3049.567 434.821 C 3049.053 434.388, 3048.978 433.688, 3049.399 433.267 C 3050.228 432.436, 3187.175 428.901, 3188 429.689 C 3188.275 429.952, 3188.844 528.761, 3189.265 649.264 C 3189.685 769.768, 3190.135 868.442, 3190.265 868.540 C 3190.394 868.637, 3247.425 866.098, 3317 862.896 C 3386.575 859.695, 3445.654 857.059, 3448.287 857.038 L 3453.074 857 3452.374 640.110 L 3451.674 423.220 3464.087 422.632 C 3470.914 422.309, 3489.421 421.773, 3505.212 421.440 L 3533.925 420.836 3533.383 472.668 C 3532.117 593.621, 3530.255 859.560, 3530.669 860.250 C 3530.916 860.663, 3589.295 861, 3660.401 861 L 3789.684 861 3790.342 842.840 C 3790.704 832.852, 3791 809.099, 3791 790.057 L 3791 755.434 3804.250 768.487 C 3852.539 816.057, 3909.538 847.111, 3972.078 859.922 C 3997.888 865.209, 4032.475 867.249, 4059.500 865.078 C 4160.448 856.967, 4255.335 802.349, 4309.801 721 C 4324.877 698.483, 4338.290 668.542, 4344.969 642.500 C 4348.052 630.481, 4357.471 577.138, 4356.655 576.322 C 4356.377 576.044, 4315.504 561.864, 4265.825 544.811 C 4216.146 527.758, 4175.178 513.505, 4174.784 513.138 C 4174.391 512.770, 4215.341 499.900, 4265.784 484.539 C 4316.228 469.177, 4360.265 455.766, 4363.645 454.736 L 4369.790 452.863 4361.494 420.181 C 4348.238 367.960, 4339.453 344.993, 4320.583 313.221 C 4289.982 261.698, 4240.813 217.917, 4186.070 193.451 C 4095.913 153.157, 3992.169 153.161, 3903.084 193.462 C 3868.460 209.125, 3833.538 232.705, 3805.085 259.632 L 3794.670 269.488 3795.360 218.244 L 3796.051 167 3701.526 167 L 3607 167 3606.985 161.750 C 3606.976 158.863, 3606.639 156, 3606.235 155.388 C 3605.699 154.576, 3525.791 156.169, 3310.500 161.283 C 3148.250 165.137, 3015.209 168.562, 3014.854 168.895 C 3014.498 169.228, 3014.680 176.143, 3015.257 184.263 C 3015.835 192.382, 3016.089 199.244, 3015.823 199.511 C 3015.556 199.778, 3009.299 197.351, 3001.919 194.117 C 2925.025 160.430, 2839.672 153.359, 2765.827 174.559 C 2748.161 179.630, 2736.208 184.310, 2717.500 193.477 C 2688.258 207.808, 2667.922 222.115, 2646.408 243.491 C 2631.461 258.344, 2623.889 267.564, 2612.961 284.220 C 2590.024 319.181, 2578.542 356.142, 2577.276 399.096 C 2576.660 419.998, 2577.778 434.008, 2581.565 452.837 C 2590.097 495.254, 2614.167 537.979, 2647.465 569.812 L 2656.841 578.776 2639.314 597.948 C 2629.675 608.493, 2621.604 616.937, 2621.379 616.712 C 2621.154 616.487, 2587.727 515.861, 2547.097 393.097 C 2506.467 270.333, 2473.039 169.706, 2472.814 169.481 C 2472.345 169.011, 2307.187 167.012, 2269.500 167.020 L 2244.500 167.024 2229.088 198.517 C 2220.611 215.837, 2213.411 229.747, 2213.088 229.427 C 2212.765 229.107, 2211.150 212.117, 2209.500 191.673 L 2206.500 154.500 2192 154.797 C 2144.106 155.780, 1752.984 165.035, 1736.250 165.582 L 1716 166.244 1716 161.122 L 1716 156 1712.250 156.004 C 1710.188 156.006, 1652.925 158.029, 1585 160.500 C 1517.075 162.971, 1460.263 164.994, 1458.750 164.996 L 1456 165 1455.861 212.750 C 1455.784 239.012, 1455.446 286.540, 1455.111 318.368 L 1454.500 376.235 1375 271.924 C 1331.275 214.552, 1294.579 166.523, 1293.453 165.191 L 1291.407 162.771 1186.453 158.476 C 1128.729 156.114, 1076.510 153.918, 1070.412 153.596 C 1064.313 153.273, 1059.138 153.195, 1058.912 153.421 M 3395.443 397.500 C 3395.443 414, 3395.580 420.890, 3395.748 412.812 C 3395.915 404.733, 3395.916 391.233, 3395.748 382.812 C 3395.581 374.390, 3395.444 381, 3395.443 397.500 M 1844.449 414.500 C 1844.449 433.200, 1844.584 440.709, 1844.749 431.186 C 1844.913 421.663, 1844.913 406.363, 1844.748 397.186 C 1844.583 388.009, 1844.449 395.800, 1844.449 414.500 M 2081.233 422.018 C 2065.687 422.393, 2052.746 422.921, 2052.476 423.190 C 2052.207 423.460, 2052.102 454.082, 2052.243 491.238 L 2052.500 558.796 2081.945 498.648 C 2098.139 465.566, 2113.331 434.563, 2115.705 429.750 L 2120.020 421 2114.760 421.168 C 2111.867 421.260, 2096.780 421.643, 2081.233 422.018 M 4084.479 514.500 C 4084.478 562.900, 4084.600 582.846, 4084.750 558.825 C 4084.899 534.804, 4084.899 495.204, 4084.750 470.825 C 4084.601 446.446, 4084.479 466.100, 4084.479 514.500 M 3985.939 433.322 C 3979.379 437.499, 3974.060 441.824, 3971.082 445.400 C 3970.212 446.445, 3968.694 448.152, 3967.708 449.192 C 3965.136 451.907, 3958.109 464.203, 3953.810 473.511 C 3944.388 493.913, 3942.380 514.337, 3947.898 533.644 C 3951.943 547.796, 3957.942 560.593, 3966.710 573.772 C 3973.835 584.482, 3980.234 590.913, 3987.672 594.840 C 3988.867 595.471, 3990.554 596.697, 3991.422 597.565 C 3992.859 599.002, 3993 591.559, 3993 514.071 C 3993 467.282, 3992.887 429.032, 3992.750 429.072 C 3992.613 429.111, 3989.547 431.024, 3985.939 433.322 M 3995.478 514 C 3995.478 561.025, 3995.600 580.263, 3995.750 556.750 C 3995.899 533.238, 3995.899 494.763, 3995.750 471.250 C 3995.600 447.738, 3995.478 466.975, 3995.478 514 M 3244.449 464.500 C 3244.449 483.200, 3244.584 490.709, 3244.749 481.186 C 3244.913 471.663, 3244.913 456.363, 3244.748 447.186 C 3244.583 438.009, 3244.449 445.800, 3244.449 464.500 M 3127.232 463.900 L 3122.964 464.500 3126.330 469.500 C 3136.223 484.196, 3144.622 501.817, 3151.593 522.500 L 3155.974 535.500 3155.987 499.250 L 3156 463 3143.750 463.150 C 3137.012 463.233, 3129.579 463.570, 3127.232 463.900 M 1996.449 627.500 C 1996.449 646.200, 1996.584 653.709, 1996.749 644.186 C 1996.913 634.663, 1996.913 619.363, 1996.748 610.186 C 1996.583 601.009, 1996.449 608.800, 1996.449 627.500 M 3396.449 676.500 C 3396.449 695.200, 3396.584 702.709, 3396.749 693.186 C 3396.913 683.663, 3396.913 668.363, 3396.748 659.186 C 3396.583 650.009, 3396.449 657.800, 3396.449 676.500 M 1845.449 700.500 C 1845.449 719.200, 1845.584 726.709, 1845.749 717.186 C 1845.913 707.663, 1845.913 692.363, 1845.748 683.186 C 1845.583 674.009, 1845.449 681.800, 1845.449 700.500 M 813.750 676.747 C 821.038 676.918, 832.962 676.918, 840.250 676.747 C 847.538 676.577, 841.575 676.437, 827 676.437 C 812.425 676.437, 806.462 676.577, 813.750 676.747 M 2324.750 676.747 C 2332.037 676.918, 2343.963 676.918, 2351.250 676.747 C 2358.537 676.577, 2352.575 676.437, 2338 676.437 C 2323.425 676.437, 2317.463 676.577, 2324.750 676.747 M 3245.449 750.500 C 3245.449 769.200, 3245.584 776.709, 3245.749 767.186 C 3245.913 757.663, 3245.913 742.363, 3245.748 733.186 C 3245.583 724.009, 3245.449 731.800, 3245.449 750.500 M 377 803.327 C 377 804.858, 370.996 805.008, 300.250 805.250 L 223.500 805.513 300.281 805.756 C 368.709 805.973, 377.127 805.832, 377.655 804.457 C 377.981 803.608, 377.966 802.633, 377.624 802.290 C 377.281 801.947, 377 802.414, 377 803.327" stroke="none" fill="#c6cb48" fill-rule="evenodd"/><path d="M 994 95.572 L 994 105.293 951.750 104.650 C 928.513 104.296, 876.425 103.770, 836 103.482 C 795.575 103.194, 755.188 102.695, 746.250 102.373 C 731.177 101.830, 730 101.650, 730 99.894 C 730 98.149, 729.114 97.998, 718.750 97.976 C 700.064 97.935, 133.595 107.968, 118.250 108.611 L 104 109.208 104 517.604 L 104 926 302.500 926 L 501 926 500.925 914.250 C 500.883 907.788, 500.504 892.600, 500.083 880.500 C 499.661 868.400, 499.368 858.414, 499.432 858.309 C 499.496 858.204, 552.637 879.886, 617.524 906.490 C 732.881 953.789, 735.524 954.814, 736.586 952.681 C 737.184 951.482, 751.563 915.949, 768.539 873.719 L 799.406 796.938 810.392 797.219 L 821.377 797.500 841.710 872.938 C 852.893 914.429, 862.155 948.488, 862.292 948.625 C 862.429 948.763, 893.342 941.478, 930.987 932.438 C 968.631 923.397, 999.784 916, 1000.216 916 C 1000.647 916, 1001 920.050, 1001 925 C 1001 929.950, 1001.135 934, 1001.301 934 C 1001.466 934, 1088.631 930.850, 1195 927 C 1301.369 923.150, 1388.803 920, 1389.296 920 C 1389.821 920, 1389.923 904.967, 1389.542 883.750 C 1389.001 853.686, 1389.115 847.776, 1390.207 849.116 C 1390.932 850.005, 1403.894 867.441, 1419.012 887.863 L 1446.500 924.993 1586.250 924.996 L 1726 925 1726 930.608 L 1726 936.216 1735.750 935.583 C 1741.112 935.236, 1825.600 931.370, 1923.500 926.992 C 2021.400 922.615, 2105.195 918.762, 2109.711 918.430 L 2117.922 917.827 2118.211 909.958 L 2118.500 902.090 2182.942 928.520 C 2218.385 943.056, 2247.458 954.848, 2247.548 954.725 C 2247.639 954.601, 2261.917 919.175, 2279.278 876 L 2310.844 797.500 2321.922 797.217 C 2328.015 797.062, 2333.004 797.062, 2333.010 797.217 C 2333.015 797.373, 2342.195 831.475, 2353.408 873 C 2371.379 939.547, 2374.016 948.476, 2375.648 948.299 C 2376.667 948.189, 2437.505 933.691, 2510.844 916.082 L 2644.187 884.066 2649.983 886.991 C 2681.979 903.143, 2732.188 919.195, 2770 925.361 C 2796.150 929.625, 2807.848 930.501, 2838.500 930.489 C 2880.784 930.473, 2912.278 926.113, 2948 915.328 C 3016.668 894.597, 3076.393 855.922, 3121.095 803.239 L 3124.690 799.002 3125.345 812.659 C 3125.705 820.171, 3126 851.038, 3126 881.254 L 3126 936.192 3136.250 935.555 C 3151.792 934.588, 3453.870 921, 3459.815 921 C 3464.333 921, 3465 921.257, 3465 923 C 3465 924.993, 3465.667 925, 3659.500 925 L 3854 925 3854 905.500 C 3854 892.935, 3854.362 886, 3855.018 886 C 3855.578 886, 3860.450 888.215, 3865.844 890.922 C 3902.936 909.536, 3943.464 921.736, 3988 927.694 C 4004.899 929.955, 4060.309 930.268, 4077 928.197 C 4114.589 923.533, 4146.790 915.410, 4181.115 901.933 C 4197.654 895.439, 4230.786 878.774, 4245.500 869.548 C 4329.350 816.972, 4386.836 741.379, 4407.898 656 C 4409.594 649.125, 4415.041 619.650, 4420.002 590.500 C 4424.964 561.350, 4429.240 536.536, 4429.504 535.359 C 4429.947 533.378, 4428.180 532.598, 4405.966 524.968 C 4392.757 520.430, 4382.073 516.597, 4382.224 516.449 C 4382.376 516.301, 4396.900 511.808, 4414.500 506.464 C 4432.100 501.121, 4446.644 496.624, 4446.820 496.471 C 4447.641 495.758, 4415.156 370.627, 4410.483 356.500 C 4374.118 246.569, 4292.855 162.735, 4184.715 123.591 C 4116.607 98.937, 4042.352 92.686, 3970.500 105.556 C 3936.929 111.569, 3896.853 124.499, 3870.110 137.945 C 3865.674 140.175, 3861.513 142, 3860.864 142 C 3859.976 142, 3859.839 137.173, 3860.311 122.500 L 3860.938 103 3764.086 103 L 3667.233 103 3666.630 100.750 C 3666.299 99.512, 3666.021 96.362, 3666.014 93.750 L 3666 89 3653.750 89.031 C 3647.012 89.048, 3484.960 92.819, 3293.633 97.411 C 3043.281 103.419, 2945.570 106.078, 2945.065 106.895 C 2944.554 107.721, 2941.700 107.481, 2934.566 106.014 C 2921.324 103.289, 2897.615 100.254, 2880 99.028 C 2760.269 90.699, 2644.443 138.847, 2576.143 225.338 C 2571.389 231.358, 2566.760 237.222, 2565.856 238.369 C 2564.287 240.362, 2563.212 237.418, 2541.984 172.978 C 2529.759 135.865, 2519.690 105.416, 2519.609 105.314 C 2519.528 105.212, 2462.771 104.585, 2393.481 103.919 C 2324.191 103.254, 2267.377 102.614, 2267.226 102.497 C 2267.075 102.380, 2266.672 99.296, 2266.331 95.642 L 2265.711 89 2255.605 89.005 C 2250.047 89.007, 2142.675 91.480, 2017 94.499 C 1891.325 97.518, 1786.813 99.991, 1784.750 99.994 L 1781 100 1781 94.423 L 1781 88.847 1768.750 89.474 C 1757.366 90.056, 1398.923 103, 1394.170 103 L 1392.022 103 1391.761 145.250 L 1391.500 187.500 1358.184 143.829 L 1324.869 100.158 1317.684 99.588 C 1313.733 99.275, 1243.225 96.323, 1161 93.028 C 1078.775 89.733, 1007.563 86.770, 1002.750 86.444 L 994 85.850 994 95.572 M 1025.666 183.605 C 1025.873 219.297, 1026.175 251.088, 1026.335 254.250 C 1026.496 257.413, 1026.524 260, 1026.397 260 C 1026.270 260, 1016.891 232.173, 1005.554 198.162 L 984.941 136.324 924.721 135.667 C 891.599 135.306, 830.300 134.720, 788.500 134.366 L 712.500 133.721 705.808 147.111 L 699.115 160.500 699.058 144.993 L 699 129.485 691.250 129.725 C 686.987 129.857, 562 132.027, 413.500 134.547 C 265 137.067, 141.588 139.353, 139.250 139.626 L 135 140.123 135 517.061 L 135 894 302.148 894 L 469.297 894 468.658 879.250 C 468.307 871.137, 467.719 852.387, 467.351 837.582 C 466.782 814.643, 466.891 810.749, 468.092 811.239 C 468.866 811.555, 525.502 834.791, 593.948 862.876 C 662.394 890.960, 718.467 913.839, 718.554 913.719 C 718.641 913.598, 732.150 880.082, 748.575 839.237 L 778.438 764.974 811.841 765.237 L 845.245 765.500 864.761 838 C 875.494 877.875, 884.415 910.664, 884.585 910.864 C 884.827 911.148, 1023.022 878.416, 1030.250 876.362 C 1031.850 875.908, 1032 876.941, 1032 888.433 L 1032 901 1039.250 900.995 C 1043.237 900.992, 1114.675 898.517, 1198 895.495 C 1281.325 892.473, 1351.466 890, 1353.869 890 L 1358.237 890 1357.532 820.750 L 1356.826 751.500 1376.663 778.128 C 1387.573 792.773, 1411.350 824.823, 1429.500 849.351 L 1462.500 893.947 1602.781 893.974 C 1714.155 893.995, 1743.141 893.742, 1743.443 892.750 C 1743.652 892.063, 1744.316 816.350, 1744.919 724.500 C 1745.522 632.650, 1746.303 536.237, 1746.656 510.250 L 1747.297 463 1751.483 463 L 1755.669 463 1756.334 610.166 C 1756.701 691.107, 1757 790.107, 1757 830.166 C 1757 887.762, 1757.262 903.002, 1758.250 903.009 C 1762.277 903.039, 2072.786 888.903, 2078.750 888.418 L 2086 887.829 2086 871.308 C 2086 858.482, 2086.280 854.902, 2087.250 855.302 C 2125.657 871.166, 2227.895 912.940, 2228.885 913.174 C 2229.868 913.405, 2238.901 892.062, 2260.063 839.500 L 2289.856 765.500 2323.428 765.237 C 2341.893 765.092, 2357 765.145, 2357 765.354 C 2357 766.419, 2395.980 910.313, 2396.375 910.709 C 2396.630 910.963, 2453.315 897.611, 2522.342 881.038 L 2647.846 850.904 2657.879 855.939 C 2691.863 872.993, 2732.360 886.627, 2769.247 893.433 C 2793.214 897.855, 2810.506 899.344, 2838 899.355 C 2867.267 899.366, 2883.001 897.852, 2909.500 892.474 C 3027.385 868.549, 3122.543 785.140, 3153.407 678.679 L 3155.675 670.858 3156.337 699.592 C 3156.702 715.395, 3157 767.627, 3157 815.663 C 3157 884.861, 3157.260 903.002, 3158.250 903.009 C 3162.308 903.039, 3472.806 888.901, 3478.803 888.413 L 3486.106 887.819 3485.392 671.410 L 3484.679 455 3492.657 455 L 3500.635 455 3500.325 474.250 C 3500.155 484.837, 3499.564 561.450, 3499.013 644.500 C 3498.462 727.550, 3497.724 817.662, 3497.373 844.750 L 3496.734 894 3659.867 894 L 3823 894 3823 861.500 C 3823 843.625, 3823.161 829, 3823.359 829 C 3823.556 829, 3829.969 833.168, 3837.609 838.263 C 3887.740 871.691, 3939.467 890.749, 3997.500 897.172 C 4012.795 898.865, 4056.946 898.873, 4071.500 897.187 C 4134.149 889.925, 4190.568 869.056, 4242.500 833.936 C 4262.282 820.558, 4275.866 809.266, 4294.071 791.066 C 4312.793 772.351, 4323.299 759.726, 4336.518 740.065 C 4355.568 711.729, 4368.801 682.318, 4377.039 650 C 4381.007 634.432, 4394.541 555.110, 4393.399 554.115 C 4392.904 553.685, 4367.750 544.883, 4337.500 534.556 C 4289.631 518.213, 4278.118 514, 4281.327 514 C 4282.914 514, 4407.553 475.763, 4408.313 475.044 C 4409.377 474.036, 4387.032 385.335, 4381.473 368.496 C 4363.059 312.718, 4335.365 267.845, 4295.376 228.989 C 4238.402 173.629, 4165.828 140.897, 4080 131.851 C 4062.777 130.036, 4021.549 130.333, 4003.500 132.402 C 3945.040 139.105, 3890.372 158.286, 3842.476 188.898 C 3835.504 193.354, 3829.508 197, 3829.150 197.001 C 3828.793 197.001, 3828.636 182.826, 3828.803 165.501 L 3829.105 134 3733.669 134 L 3638.233 134 3637.630 131.750 C 3637.299 130.512, 3637.021 127.588, 3637.014 125.250 L 3637 121 3628.750 121.001 C 3624.213 121.002, 3479.650 124.376, 3307.500 128.498 C 3135.350 132.620, 2990.954 135.995, 2986.621 135.997 L 2978.742 136 2979.431 143 C 2979.811 146.850, 2979.924 150, 2979.684 150 C 2979.443 150, 2974.803 148.631, 2969.373 146.957 C 2948.677 140.580, 2925.578 135.635, 2901 132.320 C 2881.474 129.687, 2826.169 129.698, 2807.500 132.339 C 2780.390 136.173, 2755.431 142.326, 2733 150.705 C 2670.674 173.988, 2619.886 213.576, 2585.732 265.500 C 2577.409 278.152, 2564.817 302.437, 2560.865 313.456 C 2559.574 317.055, 2558.289 319.994, 2558.009 319.987 C 2557.729 319.980, 2543.843 278.692, 2527.151 228.237 C 2510.459 177.782, 2496.734 136.439, 2496.651 136.366 C 2496.568 136.292, 2438.450 135.672, 2367.500 134.990 C 2296.550 134.307, 2238.389 133.656, 2238.252 133.543 C 2238.116 133.430, 2237.715 130.562, 2237.360 127.169 L 2236.715 121 2228.608 121.001 C 2224.148 121.002, 2117.450 123.476, 1991.500 126.498 C 1865.550 129.521, 1759.529 131.995, 1755.897 131.997 L 1749.294 132 1749.774 127 L 1750.254 122 1746.377 121.968 C 1737.700 121.897, 1424.462 133.323, 1424 133.728 C 1423.725 133.968, 1423.356 166.753, 1423.180 206.583 C 1423.004 246.412, 1422.554 278.978, 1422.180 278.951 C 1421.806 278.924, 1396.346 245.849, 1365.603 205.451 C 1334.859 165.053, 1309.209 131.629, 1308.603 131.175 C 1307.996 130.722, 1249 127.985, 1177.500 125.094 C 1106 122.202, 1042.503 119.583, 1036.395 119.273 L 1025.290 118.710 1025.666 183.605 M 4021.808 417.437 C 4018.127 418.712, 4013.627 420.041, 4011.808 420.389 C 4009.989 420.737, 4005.800 422.525, 4002.500 424.361 L 3996.500 427.699 3996 513.965 L 3995.500 600.231 4004.250 604.626 C 4009.063 607.043, 4013 608.829, 4013 608.596 C 4013 608.362, 4016.709 609.483, 4021.242 611.085 C 4025.775 612.688, 4030.275 614, 4031.242 614 C 4032.209 614, 4033 614.450, 4033 615 C 4033 615.600, 4037 616, 4043 616 C 4049 616, 4053 615.600, 4053 615 C 4053 614.450, 4053.683 614, 4054.519 614 C 4055.354 614, 4059.292 612.845, 4063.269 611.432 C 4067.246 610.020, 4071.396 608.675, 4072.491 608.443 C 4073.587 608.212, 4076.399 607.005, 4078.741 605.763 L 4083 603.503 4083 514.752 C 4083 465.938, 4083.069 425.663, 4083.154 425.250 C 4083.369 424.205, 4077.266 420.758, 4074.654 420.449 C 4073.469 420.309, 4069.046 419.025, 4064.824 417.597 C 4057.924 415.263, 4055.698 415.006, 4042.824 415.059 C 4030.531 415.109, 4027.551 415.446, 4021.808 417.437 M 4085.479 514 C 4085.479 562.675, 4085.601 582.588, 4085.750 558.250 C 4085.899 533.913, 4085.899 494.088, 4085.750 469.750 C 4085.601 445.413, 4085.479 465.325, 4085.479 514 M 3993.478 514 C 3993.478 560.475, 3993.600 579.488, 3993.750 556.250 C 3993.899 533.013, 3993.899 494.988, 3993.750 471.750 C 3993.600 448.513, 3993.478 467.525, 3993.478 514 M 3127.232 463.900 L 3122.964 464.500 3126.330 469.500 C 3136.223 484.196, 3144.622 501.817, 3151.593 522.500 L 3155.974 535.500 3155.987 499.250 L 3156 463 3143.750 463.150 C 3137.012 463.233, 3129.579 463.570, 3127.232 463.900" stroke="none" fill="#b63232" fill-rule="evenodd"/><path d="M 968 69.636 L 968 79.272 890.250 78.630 C 847.487 78.277, 799.788 77.708, 784.250 77.364 L 756 76.739 756 74.369 C 756 72.070, 755.757 71.999, 747.750 71.981 C 732.395 71.946, 112.633 82.984, 95.250 83.602 L 78 84.215 78 517.607 L 78 951 303.012 951 L 528.024 951 527.550 947.250 C 527.290 945.188, 526.812 932.979, 526.488 920.120 C 525.929 897.928, 525.990 896.766, 527.699 897.250 C 528.690 897.530, 578.974 918.063, 639.441 942.879 C 714.657 973.748, 749.607 987.635, 750.095 986.847 C 750.486 986.213, 763.538 954.052, 779.099 915.377 C 794.660 876.702, 807.545 845.212, 807.733 845.399 C 807.920 845.587, 816.099 875.516, 825.907 911.907 C 835.716 948.299, 843.999 978.332, 844.314 978.647 C 844.742 979.075, 916.901 962.174, 973.750 948.331 C 975.898 947.808, 976 948.061, 976 953.892 L 976 960 983.750 959.937 C 988.013 959.903, 1086.675 956.415, 1203 952.187 L 1414.500 944.500 1415 935.027 L 1415.500 925.554 1424.426 937.777 L 1433.353 950 1567.176 950 L 1701 950 1701 956 L 1701 962 1708.750 961.949 C 1713.013 961.921, 1812.260 957.524, 1929.299 952.178 C 2093.668 944.670, 2142.281 942.164, 2142.897 941.167 C 2143.500 940.191, 2158.047 945.762, 2202.472 963.980 C 2234.800 977.237, 2261.370 987.953, 2261.517 987.792 C 2261.664 987.631, 2274.506 955.775, 2290.055 917 C 2305.604 878.225, 2318.607 846.168, 2318.951 845.762 C 2319.295 845.356, 2327.591 874.831, 2337.386 911.262 C 2347.182 947.693, 2355.552 977.878, 2355.988 978.340 C 2356.423 978.802, 2420.693 963.839, 2498.808 945.088 L 2640.837 910.997 2653.668 916.614 C 2708.749 940.726, 2762.767 953.547, 2819.219 955.906 C 2891.226 958.916, 2958.429 944.894, 3020 914.014 C 3043.143 902.407, 3069.900 885.320, 3088.595 870.209 L 3099.690 861.242 3100.264 911.207 C 3100.580 938.687, 3101.122 961.455, 3101.469 961.802 C 3102.050 962.384, 3416.412 948.632, 3432.750 947.311 C 3439.038 946.802, 3440 946.942, 3440 948.362 C 3440 949.874, 3456.840 950, 3659.500 950 L 3879 950 3879 938.559 C 3879 932.055, 3879.429 926.853, 3879.994 926.504 C 3880.541 926.166, 3886.278 927.893, 3892.744 930.343 C 3970.732 959.888, 4061.386 963.722, 4144.321 940.982 C 4228.812 917.815, 4305.121 869.263, 4359.615 804 C 4396.896 759.351, 4423.104 706.798, 4434.419 654 C 4435.775 647.675, 4441.403 615.950, 4446.926 583.500 C 4452.449 551.050, 4457.314 523.401, 4457.738 522.058 C 4458.378 520.027, 4460.123 519.102, 4468.116 516.558 L 4477.725 513.500 4458.965 439.500 C 4448.646 398.800, 4438.311 359.650, 4435.997 352.500 C 4418.691 299.031, 4393.112 253.050, 4358.396 213 C 4347.715 200.678, 4322.961 176.344, 4311.500 166.902 C 4243.233 110.655, 4153.829 77.281, 4063 74.140 C 4005.038 72.135, 3953.857 79.440, 3903.500 96.904 C 3895.800 99.574, 3888.713 102.087, 3887.750 102.487 C 3886.135 103.158, 3886 102.200, 3886 90.107 L 3886 77 3788.129 77 L 3690.258 77 3689.569 70 L 3688.879 63 3675.189 63.062 C 3667.660 63.096, 3498.600 67.049, 3299.500 71.846 C 2948.561 80.303, 2937.194 80.518, 2927.500 78.892 C 2901.056 74.456, 2888.370 73.531, 2854 73.528 C 2818.100 73.525, 2805.802 74.506, 2778 79.595 C 2703.872 93.162, 2635.399 128.226, 2583.375 179.261 C 2578.356 184.184, 2574.029 187.827, 2573.760 187.356 C 2573.490 186.885, 2565.319 162.604, 2555.601 133.397 L 2537.931 80.294 2503.216 79.654 C 2484.122 79.302, 2432.050 78.774, 2387.500 78.480 C 2342.950 78.186, 2302.846 77.697, 2298.381 77.394 L 2290.261 76.842 2289.741 70.365 C 2289.455 66.803, 2288.937 63.604, 2288.590 63.257 C 2288.058 62.725, 1884.462 71.840, 1826.250 73.699 L 1807 74.314 1807 68.657 C 1807 63.950, 1806.706 62.994, 1805.250 62.965 C 1799.901 62.857, 1372.961 78.208, 1370.273 78.605 L 1367.047 79.082 1366.773 96.023 L 1366.500 112.963 1352.185 94.074 L 1337.870 75.184 1327.685 74.562 C 1315.316 73.808, 978.252 59.997, 972.250 59.999 L 968 60 968 69.636 M 994 95.572 L 994 105.293 951.750 104.650 C 928.513 104.296, 876.425 103.770, 836 103.482 C 795.575 103.194, 755.188 102.695, 746.250 102.373 C 731.177 101.830, 730 101.650, 730 99.894 C 730 98.149, 729.114 97.998, 718.750 97.976 C 700.064 97.935, 133.595 107.968, 118.250 108.611 L 104 109.208 104 517.604 L 104 926 302.500 926 L 501 926 500.925 914.250 C 500.883 907.788, 500.504 892.600, 500.083 880.500 C 499.661 868.400, 499.368 858.414, 499.432 858.309 C 499.496 858.204, 552.637 879.886, 617.524 906.490 C 732.881 953.789, 735.524 954.814, 736.586 952.681 C 737.184 951.482, 751.563 915.949, 768.539 873.719 L 799.406 796.938 810.392 797.219 L 821.377 797.500 841.710 872.938 C 852.893 914.429, 862.155 948.488, 862.292 948.625 C 862.429 948.763, 893.342 941.478, 930.987 932.438 C 968.631 923.397, 999.784 916, 1000.216 916 C 1000.647 916, 1001 920.050, 1001 925 C 1001 929.950, 1001.135 934, 1001.301 934 C 1001.466 934, 1088.631 930.850, 1195 927 C 1301.369 923.150, 1388.803 920, 1389.296 920 C 1389.821 920, 1389.923 904.967, 1389.542 883.750 C 1389.001 853.686, 1389.115 847.776, 1390.207 849.116 C 1390.932 850.005, 1403.894 867.441, 1419.012 887.863 L 1446.500 924.993 1586.250 924.996 L 1726 925 1726 930.608 L 1726 936.216 1735.750 935.583 C 1741.112 935.236, 1825.600 931.370, 1923.500 926.992 C 2021.400 922.615, 2105.195 918.762, 2109.711 918.430 L 2117.922 917.827 2118.211 909.958 L 2118.500 902.090 2182.942 928.520 C 2218.385 943.056, 2247.458 954.848, 2247.548 954.725 C 2247.639 954.601, 2261.917 919.175, 2279.278 876 L 2310.844 797.500 2321.922 797.217 C 2328.015 797.062, 2333.004 797.062, 2333.010 797.217 C 2333.015 797.373, 2342.195 831.475, 2353.408 873 C 2371.379 939.547, 2374.016 948.476, 2375.648 948.299 C 2376.667 948.189, 2437.505 933.691, 2510.844 916.082 L 2644.187 884.066 2649.983 886.991 C 2681.979 903.143, 2732.188 919.195, 2770 925.361 C 2796.150 929.625, 2807.848 930.501, 2838.500 930.489 C 2880.784 930.473, 2912.278 926.113, 2948 915.328 C 3016.668 894.597, 3076.393 855.922, 3121.095 803.239 L 3124.690 799.002 3125.345 812.659 C 3125.705 820.171, 3126 851.038, 3126 881.254 L 3126 936.192 3136.250 935.555 C 3151.792 934.588, 3453.870 921, 3459.815 921 C 3464.333 921, 3465 921.257, 3465 923 C 3465 924.993, 3465.667 925, 3659.500 925 L 3854 925 3854 905.500 C 3854 892.935, 3854.362 886, 3855.018 886 C 3855.578 886, 3860.450 888.215, 3865.844 890.922 C 3902.936 909.536, 3943.464 921.736, 3988 927.694 C 4004.899 929.955, 4060.309 930.268, 4077 928.197 C 4114.589 923.533, 4146.790 915.410, 4181.115 901.933 C 4197.654 895.439, 4230.786 878.774, 4245.500 869.548 C 4329.350 816.972, 4386.836 741.379, 4407.898 656 C 4409.594 649.125, 4415.041 619.650, 4420.002 590.500 C 4424.964 561.350, 4429.240 536.536, 4429.504 535.359 C 4429.947 533.378, 4428.180 532.598, 4405.966 524.968 C 4392.757 520.430, 4382.073 516.597, 4382.224 516.449 C 4382.376 516.301, 4396.900 511.808, 4414.500 506.464 C 4432.100 501.121, 4446.644 496.624, 4446.820 496.471 C 4447.641 495.758, 4415.156 370.627, 4410.483 356.500 C 4374.118 246.569, 4292.855 162.735, 4184.715 123.591 C 4116.607 98.937, 4042.352 92.686, 3970.500 105.556 C 3936.929 111.569, 3896.853 124.499, 3870.110 137.945 C 3865.674 140.175, 3861.513 142, 3860.864 142 C 3859.976 142, 3859.839 137.173, 3860.311 122.500 L 3860.938 103 3764.086 103 L 3667.233 103 3666.630 100.750 C 3666.299 99.512, 3666.021 96.362, 3666.014 93.750 L 3666 89 3653.750 89.031 C 3647.012 89.048, 3484.960 92.819, 3293.633 97.411 C 3043.281 103.419, 2945.570 106.078, 2945.065 106.895 C 2944.554 107.721, 2941.700 107.481, 2934.566 106.014 C 2921.324 103.289, 2897.615 100.254, 2880 99.028 C 2760.269 90.699, 2644.443 138.847, 2576.143 225.338 C 2571.389 231.358, 2566.760 237.222, 2565.856 238.369 C 2564.287 240.362, 2563.212 237.418, 2541.984 172.978 C 2529.759 135.865, 2519.690 105.416, 2519.609 105.314 C 2519.528 105.212, 2462.771 104.585, 2393.481 103.919 C 2324.191 103.254, 2267.377 102.614, 2267.226 102.497 C 2267.075 102.380, 2266.672 99.296, 2266.331 95.642 L 2265.711 89 2255.605 89.005 C 2250.047 89.007, 2142.675 91.480, 2017 94.499 C 1891.325 97.518, 1786.813 99.991, 1784.750 99.994 L 1781 100 1781 94.423 L 1781 88.847 1768.750 89.474 C 1757.366 90.056, 1398.923 103, 1394.170 103 L 1392.022 103 1391.761 145.250 L 1391.500 187.500 1358.184 143.829 L 1324.869 100.158 1317.684 99.588 C 1313.733 99.275, 1243.225 96.323, 1161 93.028 C 1078.775 89.733, 1007.563 86.770, 1002.750 86.444 L 994 85.850 994 95.572 M 607.744 219.655 L 609.988 220.137 610.253 296.819 L 610.519 373.500 610.509 296.500 L 610.500 219.500 608 219.336 C 605.809 219.193, 605.777 219.232, 607.744 219.655 M 3627.750 222.750 C 3648.238 222.901, 3681.762 222.901, 3702.250 222.750 C 3722.738 222.599, 3705.975 222.475, 3665 222.475 C 3624.025 222.475, 3607.262 222.599, 3627.750 222.750 M 223.463 227.250 C 223.201 227.938, 223.104 358.550, 223.246 517.500 L 223.503 806.500 223.752 516.796 L 224 227.091 230.750 226.742 L 237.500 226.392 230.719 226.196 C 226.061 226.061, 223.789 226.391, 223.463 227.250 M 3739.436 252.500 C 3739.436 266.800, 3739.577 272.511, 3739.748 265.191 C 3739.919 257.871, 3739.918 246.171, 3739.747 239.191 C 3739.575 232.211, 3739.435 238.200, 3739.436 252.500 M 3590.437 276 C 3590.437 290.575, 3590.577 296.538, 3590.747 289.250 C 3590.918 281.962, 3590.918 270.038, 3590.747 262.750 C 3590.577 255.463, 3590.437 261.425, 3590.437 276 M 1659.438 319.500 C 1659.437 334.350, 1659.576 340.564, 1659.747 333.310 C 1659.918 326.055, 1659.918 313.905, 1659.748 306.310 C 1659.578 298.714, 1659.438 304.650, 1659.438 319.500 M 1510.441 359.500 C 1510.442 375.450, 1510.580 381.835, 1510.748 373.689 C 1510.916 365.543, 1510.916 352.493, 1510.747 344.689 C 1510.579 336.885, 1510.441 343.550, 1510.441 359.500 M 3738.436 379.500 C 3738.436 393.800, 3738.577 399.511, 3738.748 392.191 C 3738.919 384.871, 3738.918 373.171, 3738.747 366.191 C 3738.575 359.211, 3738.435 365.200, 3738.436 379.500 M 3589.437 403 C 3589.437 417.575, 3589.577 423.538, 3589.747 416.250 C 3589.918 408.962, 3589.918 397.038, 3589.747 389.750 C 3589.577 382.462, 3589.437 388.425, 3589.437 403 M 1658.437 448 C 1658.437 462.575, 1658.577 468.538, 1658.747 461.250 C 1658.918 453.962, 1658.918 442.038, 1658.747 434.750 C 1658.577 427.462, 1658.437 433.425, 1658.437 448 M 3451.456 423.255 C 3451.191 423.945, 3451.098 440.707, 3451.250 460.505 L 3451.526 496.500 3451.763 459.798 L 3452 423.095 3458.250 422.740 L 3464.500 422.385 3458.219 422.193 C 3453.952 422.062, 3451.783 422.403, 3451.456 423.255 M 4083.667 425.667 C 4083.300 426.033, 4083.108 466.196, 4083.239 514.917 L 4083.479 603.500 4083.989 514.500 C 4084.270 465.550, 4084.463 425.387, 4084.417 425.250 C 4084.371 425.113, 4084.033 425.300, 4083.667 425.667 M 4086 513.941 C 4086 565.740, 4086.372 601.112, 4086.919 601.450 C 4087.425 601.763, 4088.438 601.452, 4089.169 600.759 C 4089.901 600.067, 4093.124 597.784, 4096.331 595.686 C 4102.637 591.561, 4111 583.909, 4111 582.263 C 4111 581.703, 4111.664 580.694, 4112.474 580.021 C 4114.718 578.159, 4123.703 562.828, 4126.070 556.823 C 4127.223 553.898, 4128.562 551.028, 4129.045 550.445 C 4129.922 549.389, 4131.329 544.683, 4135.308 529.500 C 4136.461 525.100, 4137.764 521.350, 4138.202 521.167 C 4139.393 520.669, 4139.195 500, 4138 500 C 4137.450 500, 4137 499.383, 4137 498.629 C 4137 497.875, 4135.491 492.362, 4133.647 486.379 C 4130.118 474.929, 4124.253 461.547, 4120.552 456.500 C 4119.343 454.850, 4118.082 452.825, 4117.750 452 C 4117.419 451.175, 4115.165 448.025, 4112.742 445 C 4108.062 439.158, 4091.289 427, 4087.908 427 C 4086.045 427, 4086 429.068, 4086 513.941 M 3994.460 429.250 C 3994.198 429.938, 3994.100 468.525, 3994.242 515 L 3994.500 599.500 3995 513.750 C 3995.275 466.587, 3995.373 428, 3995.219 428 C 3995.064 428, 3994.723 428.563, 3994.460 429.250 M 1844.469 506.500 C 1844.469 538.950, 1844.595 552.080, 1844.750 535.678 C 1844.904 519.277, 1844.904 492.727, 1844.749 476.678 C 1844.595 460.630, 1844.469 474.050, 1844.469 506.500 M 1509.441 499 C 1509.441 514.675, 1509.579 521.087, 1509.748 513.250 C 1509.917 505.412, 1509.917 492.587, 1509.748 484.750 C 1509.579 476.912, 1509.441 483.325, 1509.441 499 M 1996.469 535.500 C 1996.469 567.950, 1996.595 581.080, 1996.750 564.678 C 1996.904 548.277, 1996.904 521.727, 1996.749 505.678 C 1996.595 489.630, 1996.469 503.050, 1996.469 535.500 M 3737.437 506 C 3737.437 520.575, 3737.577 526.538, 3737.747 519.250 C 3737.918 511.962, 3737.918 500.038, 3737.747 492.750 C 3737.577 485.462, 3737.437 491.425, 3737.437 506 M 3244.469 556.500 C 3244.469 588.950, 3244.595 602.080, 3244.750 585.678 C 3244.904 569.277, 3244.904 542.727, 3244.749 526.678 C 3244.595 510.630, 3244.469 524.050, 3244.469 556.500 M 3588.436 529.500 C 3588.436 543.800, 3588.577 549.511, 3588.748 542.191 C 3588.919 534.871, 3588.918 523.171, 3588.747 516.191 C 3588.575 509.211, 3588.435 515.200, 3588.436 529.500 M 3396.469 585 C 3396.469 617.175, 3396.595 630.337, 3396.749 614.250 C 3396.904 598.162, 3396.904 571.837, 3396.749 555.750 C 3396.595 539.663, 3396.469 552.825, 3396.469 585 M 1657.438 576.500 C 1657.437 591.350, 1657.576 597.564, 1657.747 590.310 C 1657.918 583.055, 1657.918 570.905, 1657.748 563.310 C 1657.578 555.714, 1657.438 561.650, 1657.438 576.500 M 1789.458 639.500 C 1789.459 663.150, 1789.590 672.682, 1789.749 660.682 C 1789.909 648.683, 1789.909 629.333, 1789.749 617.682 C 1789.589 606.032, 1789.458 615.850, 1789.458 639.500 M 3736.436 632.500 C 3736.436 646.800, 3736.577 652.511, 3736.748 645.191 C 3736.919 637.871, 3736.918 626.171, 3736.747 619.191 C 3736.575 612.211, 3736.435 618.200, 3736.436 632.500 M 3587.437 656 C 3587.437 670.575, 3587.577 676.538, 3587.747 669.250 C 3587.918 661.962, 3587.918 650.038, 3587.747 642.750 C 3587.577 635.462, 3587.437 641.425, 3587.437 656 M 3189.458 689 C 3189.458 712.375, 3189.589 721.938, 3189.749 710.250 C 3189.909 698.563, 3189.909 679.438, 3189.749 667.750 C 3189.589 656.063, 3189.458 665.625, 3189.458 689 M 739.250 676.749 C 750.663 676.909, 769.338 676.909, 780.750 676.749 C 792.163 676.588, 782.825 676.457, 760 676.457 C 737.175 676.457, 727.837 676.588, 739.250 676.749 M 2250.250 676.749 C 2261.662 676.909, 2280.338 676.909, 2291.750 676.749 C 2303.162 676.588, 2293.825 676.457, 2271 676.457 C 2248.175 676.457, 2238.838 676.588, 2250.250 676.749 M 1656.437 705 C 1656.437 719.575, 1656.577 725.538, 1656.747 718.250 C 1656.918 710.962, 1656.918 699.038, 1656.747 691.750 C 1656.577 684.462, 1656.437 690.425, 1656.437 705 M 3452.458 737 C 3452.458 760.375, 3452.589 769.938, 3452.749 758.250 C 3452.909 746.563, 3452.909 727.438, 3452.749 715.750 C 3452.589 704.063, 3452.458 713.625, 3452.458 737 M 1845.482 772.236 C 1845.499 808.079, 1845.611 810.483, 1847.270 810.635 C 1848.484 810.746, 1848.566 810.649, 1847.531 810.327 C 1846.229 809.922, 1845.986 804.692, 1845.744 771.929 L 1845.464 734 1845.482 772.236 M 3735.436 759.500 C 3735.436 773.800, 3735.577 779.511, 3735.748 772.191 C 3735.919 764.871, 3735.918 753.171, 3735.747 746.191 C 3735.575 739.211, 3735.435 745.200, 3735.436 759.500 M 3530.456 846 L 3530.500 860.500 3660 860.506 L 3789.500 860.511 3660.277 860.252 L 3531.055 859.993 3530.733 845.746 L 3530.412 831.500 3530.456 846 M 1536.750 860.750 C 1568.788 860.896, 1621.213 860.896, 1653.250 860.750 C 1685.288 860.603, 1659.075 860.484, 1595 860.484 C 1530.925 860.484, 1504.713 860.603, 1536.750 860.750 M 235.250 861.750 C 271.963 861.895, 332.038 861.895, 368.750 861.750 C 405.463 861.605, 375.425 861.486, 302 861.486 C 228.575 861.486, 198.538 861.605, 235.250 861.750" stroke="none" fill="#2868b4" fill-rule="evenodd"/></svg>